SeanBook.ufo
<glyph name="exclam" format="1">
  <advance width="407"/>
  <unicode hex="0021"/>
  <outline>
    <contour>
      <point x="205" y="229" type="line"/>
      <point x="201" y="722" type="line"/>
      <point x="256" y="722" type="line"/>
      <point x="255" y="229" type="line"/>
    </contour>
    <contour>
      <point x="202" y="132" type="line"/>
      <point x="256" y="132" type="line"/>
      <point x="256" y="0" type="line"/>
      <point x="202" y="0" type="line"/>
    </contour>
  </outline>
</glyph>
<glyph name="quotedbl" format="1">
  <advance width="440"/>
  <unicode hex="0022"/>
  <outline>
    <contour>
      <point x="269" y="658" type="line"/>
      <point x="307" y="846" type="line"/>
      <point x="360" y="846" type="line"/>
      <point x="320" y="658" type="line"/>
    </contour>
    <contour>
      <point x="85" y="658" type="line"/>
      <point x="124" y="846" type="line"/>
      <point x="177" y="846" type="line"/>
      <point x="136" y="658" type="line"/>
    </contour>
  </outline>
</glyph>
<glyph name="numbersign" format="1">
  <advance width="653"/>
  <unicode hex="0023"/>
  <outline>
    <contour>
      <point x="44" y="243" type="line"/>
      <point x="149" y="247" type="line"/>
      <point x="81" y="30" type="line"/>
      <point x="115" y="30" type="line"/>
      <point x="183" y="248" type="line"/>
      <point x="367" y="254" type="line"/>
      <point x="299" y="38" type="line"/>
      <point x="333" y="38" type="line"/>
      <point x="402" y="255" type="line"/>
      <point x="502" y="259" type="line"/>
      <point x="508" y="292" type="line"/>
      <point x="412" y="289" type="line"/>
      <point x="470" y="473" type="line"/>
      <point x="573" y="476" type="line"/>
      <point x="578" y="510" type="line"/>
      <point x="481" y="507" type="line"/>
      <point x="548" y="720" type="line"/>
      <point x="514" y="720" type="line"/>
      <point x="446" y="505" type="line"/>
      <point x="261" y="499" type="line"/>
      <point x="326" y="706" type="line"/>
      <point x="292" y="706" type="line"/>
      <point x="227" y="498" type="line"/>
      <point x="120" y="494" type="line"/>
      <point x="112" y="461" type="line"/>
      <point x="217" y="464" type="line"/>
      <point x="159" y="280" type="line"/>
      <point x="52" y="276" type="line"/>
    </contour>
    <contour>
      <point x="251" y="466" type="line"/>
      <point x="436" y="472" type="line"/>
      <point x="378" y="287" type="line"/>
      <point x="193" y="281" type="line"/>
    </contour>
  </outline>
</glyph>
<glyph name="quotesingle" format="1">
  <advance width="256"/>
  <unicode hex="0027"/>
  <outline>
    <contour>
      <point x="90" y="658" type="line"/>
      <point x="129" y="846" type="line"/>
      <point x="180" y="846" type="line"/>
      <point x="140" y="658" type="line"/>
    </contour>
  </outline>
</glyph>
<glyph name="parenleft" format="1">
  <advance width="444"/>
  <unicode hex="0028"/>
  <outline>
    <contour>
      <point x="347" y="825" type="curve"/>
      <point x="317" y="847" type="line"/>
      <point x="164" y="711"/>
      <point x="75" y="519"/>
      <point x="75" y="305" type="curve" smooth="yes"/>
      <point x="75" y="97"/>
      <point x="162" y="-101"/>
      <point x="317" y="-241" type="curve"/>
      <point x="343" y="-214" type="line"/>
      <point x="195" y="-82"/>
      <point x="111" y="109"/>
      <point x="111" y="307" type="curve" smooth="yes"/>
      <point x="111" y="514"/>
      <point x="200" y="695"/>
    </contour>
  </outline>
</glyph>
<glyph name="parenright" format="1">
  <advance width="445"/>
  <unicode hex="0029"/>
  <outline>
    <contour>
      <point x="315" y="298" type="curve" smooth="yes"/>
      <point x="315" y="94"/>
      <point x="225" y="-100"/>
      <point x="67" y="-231" type="curve"/>
      <point x="96" y="-253" type="line"/>
      <point x="259" y="-115"/>
      <point x="352" y="87"/>
      <point x="352" y="299" type="curve" smooth="yes"/>
      <point x="352" y="521"/>
      <point x="259" y="712"/>
      <point x="100" y="848" type="curve"/>
      <point x="74" y="821" type="line"/>
      <point x="226" y="691"/>
      <point x="315" y="509"/>
    </contour>
  </outline>
</glyph>
<glyph name="plus" format="1">
  <advance width="752"/>
  <unicode hex="002B"/>
  <outline>
    <contour>
      <point x="87" y="282" type="line"/>
      <point x="362" y="282" type="line"/>
      <point x="362" y="17" type="line"/>
      <point x="399" y="17" type="line"/>
      <point x="399" y="282" type="line"/>
      <point x="664" y="282" type="line"/>
      <point x="664" y="318" type="line"/>
      <point x="400" y="318" type="line"/>
      <point x="400" y="549" type="line"/>
      <point x="363" y="549" type="line"/>
      <point x="363" y="319" type="line"/>
      <point x="87" y="319" type="line"/>
    </contour>
  </outline>
</glyph>
<glyph name="comma" format="1">
  <advance width="326"/>
  <unicode hex="002C"/>
  <outline>
    <contour>
      <point x="59" y="-106" type="line"/>
      <point x="162" y="92" type="line"/>
      <point x="220" y="92" type="line"/>
      <point x="106" y="-106" type="line"/>
    </contour>
  </outline>
</glyph>
<glyph name="hyphen" format="1">
  <advance width="391"/>
  <unicode hex="002D"/>
  <outline>
    <contour>
      <point x="54" y="297" type="line"/>
      <point x="340" y="297" type="line"/>
      <point x="340" y="246" type="line"/>
      <point x="54" y="246" type="line"/>
    </contour>
  </outline>
</glyph>
<glyph name="period" format="1">
  <advance width="323"/>
  <unicode hex="002E"/>
  <outline>
    <contour>
      <point x="142" y="141" type="line"/>
      <point x="142" y="0" type="line"/>
      <point x="181" y="0" type="line"/>
      <point x="181" y="141" type="line"/>
    </contour>
  </outline>
</glyph>
<glyph name="slash" format="1">
  <advance width="567"/>
  <unicode hex="002F"/>
  <outline>
    <contour>
      <point x="107" y="-68" type="line"/>
      <point x="53" y="-68" type="line"/>
      <point x="472" y="844" type="line"/>
      <point x="527" y="844" type="line"/>
    </contour>
  </outline>
</glyph>
<glyph name="zero" format="1">
  <advance width="574"/>
  <unicode hex="0030"/>
  <outline>
    <contour>
      <point x="106" y="247" type="curve" smooth="yes"/>
      <point x="106" y="361"/>
      <point x="181" y="463"/>
      <point x="288" y="463" type="curve" smooth="yes"/>
      <point x="396" y="463"/>
      <point x="469" y="364"/>
      <point x="469" y="252" type="curve" smooth="yes"/>
      <point x="469" y="132"/>
      <point x="392" y="32"/>
      <point x="287" y="32" type="curve" smooth="yes"/>
      <point x="181" y="32"/>
      <point x="106" y="132"/>
    </contour>
    <contour>
      <point x="286" y="-4" type="curve" smooth="yes"/>
      <point x="288" y="-4" type="line" smooth="yes"/>
      <point x="414" y="-4"/>
      <point x="506" y="111"/>
      <point x="506" y="250" type="curve" smooth="yes"/>
      <point x="506" y="382"/>
      <point x="416" y="499"/>
      <point x="288" y="500" type="curve" smooth="yes"/>
      <point x="160" y="500"/>
      <point x="68" y="383"/>
      <point x="68" y="249" type="curve" smooth="yes"/>
      <point x="68" y="111"/>
      <point x="161" y="-4"/>
    </contour>
  </outline>
</glyph>
<glyph name="one" format="1">
  <advance width="306"/>
  <unicode hex="0031"/>
  <outline>
    <contour>
      <point x="188" y="471" type="line"/>
      <point x="6" y="329" type="line"/>
      <point x="30" y="303" type="line"/>
      <point x="188" y="425" type="line"/>
      <point x="189" y="0" type="line"/>
      <point x="227" y="0" type="line"/>
      <point x="226" y="471" type="line"/>
    </contour>
  </outline>
</glyph>
<glyph name="two" format="1">
  <advance width="446"/>
  <unicode hex="0032"/>
  <outline>
    <contour>
      <point x="330" y="360" type="curve" smooth="yes"/>
      <point x="330" y="427"/>
      <point x="289" y="489"/>
      <point x="209" y="489" type="curve" smooth="yes"/>
      <point x="144" y="489"/>
      <point x="99" y="433"/>
      <point x="58" y="369" type="curve"/>
      <point x="19" y="398" type="line"/>
      <point x="71" y="478"/>
      <point x="132" y="541"/>
      <point x="213" y="541" type="curve" smooth="yes"/>
      <point x="322" y="541"/>
      <point x="379" y="456"/>
      <point x="379" y="366" type="curve" smooth="yes"/>
      <point x="379" y="338"/>
      <point x="374" y="309"/>
      <point x="364" y="279" type="curve" smooth="yes"/>
      <point x="331" y="175"/>
      <point x="264" y="104"/>
      <point x="173" y="72" type="curve"/>
      <point x="447" y="72" type="line"/>
      <point x="447" y="21" type="line"/>
      <point x="8" y="21" type="line"/>
      <point x="8" y="72" type="line"/>
      <point x="146" y="72"/>
      <point x="249" y="138"/>
      <point x="307" y="263" type="curve" smooth="yes"/>
      <point x="323" y="296"/>
      <point x="330" y="329"/>
    </contour>
  </outline>
</glyph>
<glyph name="three" format="1">
  <advance width="485"/>
  <unicode hex="0033"/>
  <outline>
    <contour>
      <point x="346" y="326" type="curve" smooth="yes"/>
      <point x="346" y="221"/>
      <point x="238" y="148"/>
      <point x="118" y="148" type="curve"/>
      <point x="118" y="112" type="line"/>
      <point x="119" y="112" type="line" smooth="yes"/>
      <point x="217" y="112"/>
      <point x="326" y="104"/>
      <point x="365" y="18" type="curve" smooth="yes"/>
      <point x="373" y="1"/>
      <point x="376" y="-16"/>
      <point x="376" y="-34" type="curve" smooth="yes"/>
      <point x="376" y="-129"/>
      <point x="276" y="-207"/>
      <point x="177" y="-207" type="curve" smooth="yes"/>
      <point x="135" y="-207"/>
      <point x="93" y="-194"/>
      <point x="57" y="-169" type="curve"/>
      <point x="42" y="-202" type="line"/>
      <point x="84" y="-229"/>
      <point x="132" y="-243"/>
      <point x="180" y="-243" type="curve" smooth="yes"/>
      <point x="302" y="-243"/>
      <point x="415" y="-146"/>
      <point x="415" y="-33" type="curve" smooth="yes"/>
      <point x="415" y="73"/>
      <point x="329" y="121"/>
      <point x="244" y="138" type="curve"/>
      <point x="325" y="174"/>
      <point x="383" y="244"/>
      <point x="383" y="329" type="curve" smooth="yes"/>
      <point x="383" y="434"/>
      <point x="297" y="513"/>
      <point x="183" y="513" type="curve" smooth="yes"/>
      <point x="119" y="513"/>
      <point x="57" y="485"/>
      <point x="14" y="434" type="curve"/>
      <point x="29" y="409" type="line"/>
      <point x="66" y="453"/>
      <point x="121" y="478"/>
      <point x="177" y="478" type="curve" smooth="yes"/>
      <point x="272" y="478"/>
      <point x="346" y="414"/>
    </contour>
  </outline>
</glyph>
<glyph name="four" format="1">
  <advance width="610"/>
  <unicode hex="0034"/>
  <outline>
    <contour>
      <point x="74" y="107" type="line"/>
      <point x="376" y="107" type="line"/>
      <point x="377" y="456" type="line"/>
    </contour>
    <contour>
      <point x="11" y="107" type="line"/>
      <point x="377" y="527" type="line"/>
      <point x="432" y="527" type="line"/>
      <point x="432" y="387"/>
      <point x="431" y="247"/>
      <point x="431" y="107" type="curve"/>
      <point x="597" y="107" type="line"/>
      <point x="597" y="56" type="line"/>
      <point x="431" y="56" type="line"/>
      <point x="430" y="-222" type="line"/>
      <point x="376" y="-222" type="line"/>
      <point x="376" y="56" type="line"/>
      <point x="11" y="56" type="line"/>
    </contour>
  </outline>
</glyph>
<glyph name="five" format="1">
  <advance width="507"/>
  <unicode hex="0035"/>
  <outline>
    <contour>
      <point x="193" y="295" type="curve" smooth="yes"/>
      <point x="175" y="295"/>
      <point x="155" y="293"/>
      <point x="136" y="289" type="curve"/>
      <point x="137" y="498" type="line"/>
      <point x="433" y="498" type="line"/>
      <point x="433" y="534" type="line"/>
      <point x="100" y="534" type="line"/>
      <point x="100" y="443"/>
      <point x="99" y="351"/>
      <point x="99" y="260" type="curve" smooth="yes"/>
      <point x="99" y="243" type="line"/>
      <point x="130" y="254"/>
      <point x="160" y="259"/>
      <point x="188" y="259" type="curve" smooth="yes"/>
      <point x="307" y="259"/>
      <point x="400" y="165"/>
      <point x="400" y="17" type="curve" smooth="yes"/>
      <point x="400" y="-110"/>
      <point x="314" y="-196"/>
      <point x="208" y="-196" type="curve" smooth="yes"/>
      <point x="171" y="-196"/>
      <point x="132" y="-185"/>
      <point x="93" y="-163" type="curve"/>
      <point x="75" y="-195" type="line"/>
      <point x="121" y="-222"/>
      <point x="167" y="-234"/>
      <point x="211" y="-234" type="curve" smooth="yes"/>
      <point x="337" y="-234"/>
      <point x="438" y="-133"/>
      <point x="438" y="16" type="curve" smooth="yes"/>
      <point x="438" y="187"/>
      <point x="330" y="295"/>
    </contour>
  </outline>
</glyph>
<glyph name="six" format="1">
  <advance width="590"/>
  <unicode hex="0036"/>
  <outline>
    <contour>
      <point x="511" y="721" type="curve"/>
      <point x="532" y="673" type="line"/>
      <point x="427" y="641"/>
      <point x="332" y="584"/>
      <point x="252" y="509" type="curve" smooth="yes"/>
      <point x="189" y="449"/>
      <point x="136" y="375"/>
      <point x="124" y="294" type="curve"/>
      <point x="173" y="340"/>
      <point x="238" y="365"/>
      <point x="305" y="365" type="curve" smooth="yes"/>
      <point x="421" y="365"/>
      <point x="520" y="298"/>
      <point x="520" y="182" type="curve" smooth="yes"/>
      <point x="520" y="77"/>
      <point x="425" y="-8"/>
      <point x="310" y="-8" type="curve" smooth="yes"/>
      <point x="167" y="-8"/>
      <point x="69" y="108"/>
      <point x="69" y="250" type="curve" smooth="yes"/>
      <point x="69" y="354"/>
      <point x="125" y="450"/>
      <point x="199" y="528" type="curve" smooth="yes"/>
      <point x="285" y="617"/>
      <point x="393" y="684"/>
    </contour>
    <contour>
      <point x="461" y="180" type="curve" smooth="yes"/>
      <point x="461" y="262"/>
      <point x="385" y="320"/>
      <point x="293" y="320" type="curve" smooth="yes"/>
      <point x="226" y="320"/>
      <point x="163" y="288"/>
      <point x="123" y="234" type="curve"/>
      <point x="134" y="129"/>
      <point x="213" y="48"/>
      <point x="313" y="48" type="curve" smooth="yes"/>
      <point x="394" y="48"/>
      <point x="461" y="106"/>
    </contour>
  </outline>
</glyph>
<glyph name="seven" format="1">
  <advance width="568"/>
  <unicode hex="0037"/>
  <outline>
    <contour>
      <point x="71" y="490" type="line"/>
      <point x="528" y="489" type="line"/>
      <point x="528" y="437" type="line"/>
      <point x="152" y="-222" type="line"/>
      <point x="95" y="-222" type="line"/>
      <point x="469" y="437" type="line"/>
      <point x="71" y="437" type="line"/>
    </contour>
  </outline>
</glyph>
<glyph name="eight" format="1">
  <advance width="575"/>
  <unicode hex="0038"/>
  <outline>
    <contour>
      <point x="286" y="624" type="curve" smooth="yes"/>
      <point x="361" y="624"/>
      <point x="433" y="582"/>
      <point x="433" y="507" type="curve" smooth="yes"/>
      <point x="433" y="439"/>
      <point x="367" y="390"/>
      <point x="299" y="356" type="curve"/>
      <point x="224" y="392"/>
      <point x="150" y="441"/>
      <point x="150" y="511" type="curve" smooth="yes"/>
      <point x="150" y="586"/>
      <point x="218" y="624"/>
    </contour>
    <contour>
      <point x="289" y="-11" type="curve" smooth="yes"/>
      <point x="393" y="-11"/>
      <point x="486" y="59"/>
      <point x="486" y="156" type="curve" smooth="yes"/>
      <point x="486" y="245"/>
      <point x="413" y="300"/>
      <point x="334" y="339" type="curve"/>
      <point x="407" y="376"/>
      <point x="470" y="434"/>
      <point x="470" y="509" type="curve" smooth="yes"/>
      <point x="470" y="600"/>
      <point x="384" y="660"/>
      <point x="291" y="660" type="curve" smooth="yes"/>
      <point x="200" y="660"/>
      <point x="115" y="605"/>
      <point x="115" y="512" type="curve" smooth="yes"/>
      <point x="115" y="433"/>
      <point x="185" y="378"/>
      <point x="261" y="338" type="curve"/>
      <point x="178" y="295"/>
      <point x="100" y="239"/>
      <point x="100" y="151" type="curve" smooth="yes"/>
      <point x="100" y="57"/>
      <point x="190" y="-11"/>
    </contour>
    <contour>
      <point x="298" y="24" type="curve" smooth="yes"/>
      <point x="213" y="24"/>
      <point x="137" y="79"/>
      <point x="138" y="158" type="curve" smooth="yes"/>
      <point x="138" y="236"/>
      <point x="218" y="283"/>
      <point x="296" y="321" type="curve"/>
      <point x="374" y="283"/>
      <point x="452" y="233"/>
      <point x="452" y="155" type="curve" smooth="yes"/>
      <point x="452" y="74"/>
      <point x="378" y="24"/>
    </contour>
  </outline>
</glyph>
<glyph name="nine" format="1">
  <advance width="593"/>
  <unicode hex="0039"/>
  <outline>
    <contour>
      <point x="287" y="476" type="curve" smooth="yes"/>
      <point x="179" y="476"/>
      <point x="91" y="391"/>
      <point x="91" y="289" type="curve" smooth="yes"/>
      <point x="91" y="178"/>
      <point x="180" y="106"/>
      <point x="292" y="106" type="curve" smooth="yes"/>
      <point x="360" y="106"/>
      <point x="424" y="135"/>
      <point x="468" y="186" type="curve"/>
      <point x="454" y="111"/>
      <point x="409" y="43"/>
      <point x="354" y="-12" type="curve" smooth="yes"/>
      <point x="280" y="-87"/>
      <point x="187" y="-143"/>
      <point x="85" y="-174" type="curve"/>
      <point x="99" y="-207" type="line"/>
      <point x="203" y="-176"/>
      <point x="298" y="-120"/>
      <point x="375" y="-44" type="curve" smooth="yes"/>
      <point x="451" y="31"/>
      <point x="510" y="125"/>
      <point x="510" y="231" type="curve" smooth="yes"/>
      <point x="510" y="360"/>
      <point x="421" y="476"/>
    </contour>
    <contour>
      <point x="124" y="295" type="curve" smooth="yes"/>
      <point x="124" y="378"/>
      <point x="195" y="446"/>
      <point x="282" y="446" type="curve" smooth="yes"/>
      <point x="390" y="446"/>
      <point x="469" y="350"/>
      <point x="472" y="239" type="curve"/>
      <point x="435" y="178"/>
      <point x="369" y="140"/>
      <point x="297" y="140" type="curve" smooth="yes"/>
      <point x="201" y="140"/>
      <point x="124" y="203"/>
    </contour>
  </outline>
</glyph>
<glyph name="colon" format="1">
  <advance width="354"/>
  <unicode hex="003A"/>
  <outline>
    <contour>
      <point x="154" y="148" type="line"/>
      <point x="208" y="148" type="line"/>
      <point x="208" y="0" type="line"/>
      <point x="154" y="0" type="line"/>
    </contour>
    <contour>
      <point x="154" y="488" type="line"/>
      <point x="208" y="488" type="line"/>
      <point x="208" y="341" type="line"/>
      <point x="154" y="341" type="line"/>
    </contour>
  </outline>
</glyph>
<glyph name="semicolon" format="1">
  <advance width="320"/>
  <unicode hex="003B"/>
  <outline>
    <contour>
      <point x="161" y="318" type="line"/>
      <point x="199" y="318" type="line"/>
      <point x="199" y="453" type="line"/>
      <point x="161" y="453" type="line"/>
    </contour>
    <contour>
      <point x="59" y="-89" type="line"/>
      <point x="96" y="-89" type="line"/>
      <point x="206" y="86" type="line"/>
      <point x="168" y="86" type="line"/>
    </contour>
  </outline>
</glyph>
<glyph name="less" format="1">
  <advance width="816"/>
  <unicode hex="003C"/>
  <outline>
    <contour>
      <point x="163" y="301" type="line"/>
      <point x="711" y="63" type="line"/>
      <point x="711" y="9" type="line"/>
      <point x="102" y="273" type="line"/>
      <point x="102" y="327" type="line"/>
      <point x="701" y="597" type="line"/>
      <point x="701" y="543" type="line"/>
    </contour>
  </outline>
</glyph>
<glyph name="equal" format="1">
  <advance width="835"/>
  <unicode hex="003D"/>
  <outline>
    <contour>
      <point x="100" y="221" type="line"/>
      <point x="100" y="185" type="line"/>
      <point x="724" y="185" type="line"/>
      <point x="724" y="221" type="line"/>
    </contour>
    <contour>
      <point x="100" y="429" type="line"/>
      <point x="100" y="392" type="line"/>
      <point x="724" y="392" type="line"/>
      <point x="724" y="429" type="line"/>
    </contour>
  </outline>
</glyph>
<glyph name="greater" format="1">
  <advance width="814"/>
  <unicode hex="003E"/>
  <outline>
    <contour>
      <point x="114" y="15" type="line"/>
      <point x="720" y="262" type="line"/>
      <point x="720" y="300" type="line"/>
      <point x="100" y="551" type="line"/>
      <point x="100" y="513" type="line"/>
      <point x="673" y="281" type="line"/>
      <point x="114" y="53" type="line"/>
    </contour>
  </outline>
</glyph>
<glyph name="question" format="1">
  <advance width="551"/>
  <unicode hex="003F"/>
  <outline>
    <contour>
      <point x="476" y="520" type="curve" smooth="yes"/>
      <point x="476" y="400"/>
      <point x="387" y="331"/>
      <point x="287" y="312" type="curve"/>
      <point x="287" y="226" type="line"/>
      <point x="233" y="226" type="line"/>
      <point x="233" y="358" type="line"/>
      <point x="332" y="358"/>
      <point x="427" y="418"/>
      <point x="427" y="522" type="curve" smooth="yes"/>
      <point x="427" y="610"/>
      <point x="354" y="677"/>
      <point x="272" y="677" type="curve" smooth="yes"/>
      <point x="249" y="677"/>
      <point x="225" y="672"/>
      <point x="202" y="660" type="curve"/>
      <point x="185" y="708" type="line"/>
      <point x="213" y="721"/>
      <point x="241" y="726"/>
      <point x="269" y="726" type="curve" smooth="yes"/>
      <point x="380" y="726"/>
      <point x="476" y="635"/>
    </contour>
    <contour>
      <point x="288" y="-10" type="line"/>
      <point x="230" y="-10" type="line"/>
      <point x="230" y="130" type="line"/>
      <point x="288" y="130" type="line"/>
    </contour>
  </outline>
</glyph>
<glyph name="at" format="1">
  <advance width="849"/>
  <unicode hex="0040"/>
  <outline>
    <contour>
      <point x="749" y="245" type="curve" smooth="yes"/>
      <point x="749" y="143"/>
      <point x="686" y="72"/>
      <point x="627" y="72" type="curve" smooth="yes"/>
      <point x="583" y="72"/>
      <point x="555" y="109"/>
      <point x="555" y="153" type="curve" smooth="yes"/>
      <point x="555" y="154" type="line" smooth="yes"/>
      <point x="556" y="199"/>
      <point x="580" y="239"/>
      <point x="580" y="282" type="curve" smooth="yes"/>
      <point x="580" y="356"/>
      <point x="512" y="395"/>
      <point x="439" y="395" type="curve" smooth="yes"/>
      <point x="335" y="395"/>
      <point x="250" y="313"/>
      <point x="250" y="214" type="curve" smooth="yes"/>
      <point x="250" y="122"/>
      <point x="316" y="55"/>
      <point x="408" y="55" type="curve" smooth="yes"/>
      <point x="453" y="55"/>
      <point x="496" y="74"/>
      <point x="526" y="107" type="curve"/>
      <point x="539" y="70"/>
      <point x="579" y="40"/>
      <point x="625" y="40" type="curve" smooth="yes"/>
      <point x="705" y="40"/>
      <point x="784" y="128"/>
      <point x="784" y="248" type="curve" smooth="yes"/>
      <point x="784" y="422"/>
      <point x="629" y="559"/>
      <point x="439" y="559" type="curve" smooth="yes"/>
      <point x="236" y="559"/>
      <point x="64" y="407"/>
      <point x="64" y="208" type="curve" smooth="yes"/>
      <point x="64" y="9"/>
      <point x="237" y="-141"/>
      <point x="441" y="-141" type="curve" smooth="yes"/>
      <point x="538" y="-141"/>
      <point x="632" y="-105"/>
      <point x="705" y="-41" type="curve"/>
      <point x="681" y="-15" type="line"/>
      <point x="616" y="-74"/>
      <point x="530" y="-107"/>
      <point x="441" y="-107" type="curve" smooth="yes"/>
      <point x="256" y="-107"/>
      <point x="99" y="30"/>
      <point x="99" y="211" type="curve" smooth="yes"/>
      <point x="99" y="390"/>
      <point x="254" y="526"/>
      <point x="436" y="526" type="curve" smooth="yes"/>
      <point x="607" y="526"/>
      <point x="749" y="405"/>
    </contour>
    <contour>
      <point x="285" y="212" type="curve" smooth="yes"/>
      <point x="285" y="294"/>
      <point x="355" y="362"/>
      <point x="440" y="362" type="curve" smooth="yes"/>
      <point x="494" y="362"/>
      <point x="547" y="333"/>
      <point x="547" y="274" type="curve" smooth="yes"/>
      <point x="547" y="235"/>
      <point x="522" y="199"/>
      <point x="519" y="157" type="curve"/>
      <point x="500" y="112"/>
      <point x="457" y="82"/>
      <point x="408" y="82" type="curve" smooth="yes"/>
      <point x="338" y="82"/>
      <point x="285" y="140"/>
    </contour>
  </outline>
</glyph>
<glyph name="A" format="1">
  <advance width="756"/>
  <unicode hex="0041"/>
  <outline>
    <contour>
      <point x="67" y="0" type="line"/>
      <point x="105" y="0" type="line"/>
      <point x="219" y="259" type="line"/>
      <point x="549" y="259" type="line"/>
      <point x="634" y="1" type="line"/>
      <point x="672" y="1" type="line"/>
      <point x="433" y="721" type="line"/>
      <point x="386" y="721" type="line"/>
    </contour>
    <contour>
      <point x="537" y="294" type="line"/>
      <point x="235" y="294" type="line"/>
      <point x="408" y="686" type="line"/>
    </contour>
  </outline>
</glyph>
<glyph name="B" format="1">
  <advance width="637"/>
  <unicode hex="0042"/>
  <outline>
    <contour>
      <point x="274" y="722" type="line" smooth="yes"/>
      <point x="402" y="722"/>
      <point x="509" y="673"/>
      <point x="509" y="550" type="curve" smooth="yes"/>
      <point x="509" y="478"/>
      <point x="465" y="428"/>
      <point x="399" y="402" type="curve"/>
      <point x="491" y="374"/>
      <point x="555" y="311"/>
      <point x="555" y="209" type="curve" smooth="yes"/>
      <point x="555" y="71"/>
      <point x="431" y="0"/>
      <point x="279" y="0" type="curve" smooth="yes"/>
      <point x="107" y="0" type="line"/>
      <point x="107" y="722" type="line"/>
    </contour>
    <contour>
      <point x="455" y="547" type="curve" smooth="yes"/>
      <point x="455" y="641"/>
      <point x="371" y="672"/>
      <point x="274" y="672" type="curve" smooth="yes"/>
      <point x="162" y="672" type="line"/>
      <point x="162" y="425" type="line"/>
      <point x="276" y="425" type="line" smooth="yes"/>
      <point x="374" y="425"/>
      <point x="455" y="464"/>
    </contour>
    <contour>
      <point x="162" y="50" type="line"/>
      <point x="279" y="50" type="line" smooth="yes"/>
      <point x="399" y="50"/>
      <point x="499" y="101"/>
      <point x="501" y="211" type="curve"/>
      <point x="502" y="324"/>
      <point x="400" y="378"/>
      <point x="276" y="378" type="curve" smooth="yes"/>
      <point x="162" y="378" type="line"/>
    </contour>
  </outline>
</glyph>
<glyph name="C" format="1">
  <advance width="682"/>
  <unicode hex="0043"/>
  <outline>
    <contour>
      <point x="405" y="44" type="curve" smooth="yes"/>
      <point x="500" y="44"/>
      <point x="572" y="76"/>
      <point x="632" y="128" type="curve"/>
      <point x="664" y="86" type="line"/>
      <point x="590" y="27"/>
      <point x="506" y="-8"/>
      <point x="399" y="-8" type="curve" smooth="yes"/>
      <point x="202" y="-8"/>
      <point x="83" y="135"/>
      <point x="83" y="349" type="curve" smooth="yes"/>
      <point x="83" y="582"/>
      <point x="208" y="731"/>
      <point x="414" y="731" type="curve" smooth="yes"/>
      <point x="514" y="731"/>
      <point x="589" y="703"/>
      <point x="662" y="656" type="curve"/>
      <point x="634" y="612" type="line"/>
      <point x="572" y="655"/>
      <point x="502" y="679"/>
      <point x="419" y="679" type="curve" smooth="yes"/>
      <point x="241" y="679"/>
      <point x="137" y="550"/>
      <point x="137" y="352" type="curve" smooth="yes"/>
      <point x="137" y="168"/>
      <point x="240" y="44"/>
    </contour>
  </outline>
</glyph>
<glyph name="D" format="1">
  <advance width="699"/>
  <unicode hex="0044"/>
  <outline>
    <contour>
      <point x="278" y="722" type="line" smooth="yes"/>
      <point x="507" y="722"/>
      <point x="634" y="586"/>
      <point x="634" y="346" type="curve" smooth="yes"/>
      <point x="634" y="130"/>
      <point x="527" y="0"/>
      <point x="313" y="0" type="curve" smooth="yes"/>
      <point x="81" y="0" type="line"/>
      <point x="81" y="722" type="line"/>
    </contour>
    <contour>
      <point x="579" y="345" type="curve" smooth="yes"/>
      <point x="579" y="547"/>
      <point x="476" y="668"/>
      <point x="286" y="668" type="curve" smooth="yes"/>
      <point x="135" y="668" type="line"/>
      <point x="135" y="54" type="line"/>
      <point x="293" y="54" type="line" smooth="yes"/>
      <point x="480" y="54"/>
      <point x="579" y="161"/>
    </contour>
  </outline>
</glyph>
<glyph name="E" format="1">
  <advance width="611"/>
  <unicode hex="0045"/>
  <outline>
    <contour>
      <point x="112" y="0" type="line"/>
      <point x="112" y="722" type="line"/>
      <point x="528" y="722" type="line"/>
      <point x="528" y="669" type="line"/>
      <point x="166" y="669" type="line"/>
      <point x="166" y="400" type="line"/>
      <point x="448" y="400" type="line"/>
      <point x="448" y="347" type="line"/>
      <point x="166" y="347" type="line"/>
      <point x="166" y="53" type="line"/>
      <point x="561" y="53" type="line"/>
      <point x="561" y="0" type="line"/>
    </contour>
  </outline>
</glyph>
<glyph name="F" format="1">
  <advance width="574"/>
  <unicode hex="0046"/>
  <outline>
    <contour>
      <point x="112" y="0" type="line"/>
      <point x="112" y="722" type="line"/>
      <point x="532" y="722" type="line"/>
      <point x="532" y="669" type="line"/>
      <point x="166" y="669" type="line"/>
      <point x="166" y="400" type="line"/>
      <point x="462" y="400" type="line"/>
      <point x="462" y="347" type="line"/>
      <point x="166" y="347" type="line"/>
      <point x="166" y="0" type="line"/>
    </contour>
  </outline>
</glyph>
<glyph name="G" format="1">
  <advance width="778"/>
  <unicode hex="0047"/>
  <outline>
    <contour>
      <point x="435" y="43" type="curve" smooth="yes"/>
      <point x="520" y="43"/>
      <point x="591" y="61"/>
      <point x="661" y="96" type="curve"/>
      <point x="661" y="281" type="line"/>
      <point x="483" y="281" type="line"/>
      <point x="483" y="333" type="line"/>
      <point x="713" y="333" type="line"/>
      <point x="713" y="74" type="line"/>
      <point x="626" y="22"/>
      <point x="531" y="-6"/>
      <point x="424" y="-6" type="curve" smooth="yes"/>
      <point x="205" y="-6"/>
      <point x="82" y="128"/>
      <point x="82" y="360" type="curve" smooth="yes"/>
      <point x="82" y="588"/>
      <point x="211" y="730"/>
      <point x="424" y="730" type="curve" smooth="yes"/>
      <point x="531" y="730"/>
      <point x="614" y="702"/>
      <point x="695" y="653" type="curve"/>
      <point x="670" y="607" type="line"/>
      <point x="598" y="651"/>
      <point x="523" y="676"/>
      <point x="429" y="676" type="curve" smooth="yes"/>
      <point x="245" y="676"/>
      <point x="135" y="554"/>
      <point x="136" y="356" type="curve"/>
      <point x="138" y="159"/>
      <point x="247" y="43"/>
    </contour>
  </outline>
</glyph>
<glyph name="H" format="1">
  <advance width="757"/>
  <unicode hex="0048"/>
  <outline>
    <contour>
      <point x="611" y="722" type="line"/>
      <point x="665" y="722" type="line"/>
      <point x="665" y="0" type="line"/>
      <point x="611" y="0" type="line"/>
      <point x="611" y="336" type="line"/>
      <point x="148" y="336" type="line"/>
      <point x="148" y="0" type="line"/>
      <point x="93" y="0" type="line"/>
      <point x="94" y="722" type="line"/>
      <point x="148" y="722" type="line"/>
      <point x="148" y="388" type="line"/>
      <point x="611" y="388" type="line"/>
    </contour>
  </outline>
</glyph>
<glyph name="I" format="1">
  <advance width="246"/>
  <unicode hex="0049"/>
  <outline>
    <contour>
      <point x="96" y="0" type="line"/>
      <point x="97" y="722" type="line"/>
      <point x="151" y="722" type="line"/>
      <point x="151" y="0" type="line"/>
    </contour>
  </outline>
</glyph>
<glyph name="J" format="1">
  <advance width="303"/>
  <unicode hex="004A"/>
  <outline>
    <contour>
      <point x="200" y="0" type="curve" smooth="yes"/>
      <point x="201" y="722" type="line"/>
      <point x="162" y="722" type="line"/>
      <point x="162" y="0" type="line" smooth="yes"/>
      <point x="162" y="-84"/>
      <point x="128" y="-186"/>
      <point x="33" y="-186" type="curve" smooth="yes"/>
      <point x="2" y="-186"/>
      <point x="-29" y="-171"/>
      <point x="-49" y="-145" type="curve"/>
      <point x="-68" y="-176" type="line"/>
      <point x="-42" y="-204"/>
      <point x="-6" y="-220"/>
      <point x="32" y="-220" type="curve" smooth="yes"/>
      <point x="144" y="-220"/>
      <point x="200" y="-105"/>
    </contour>
  </outline>
</glyph>
<glyph name="K" format="1">
  <advance width="662"/>
  <unicode hex="004B"/>
  <outline>
    <contour>
      <point x="101" y="0" type="line"/>
      <point x="139" y="0" type="line"/>
      <point x="139" y="365" type="line"/>
      <point x="559" y="0" type="line"/>
      <point x="599" y="0" type="line"/>
      <point x="167" y="387" type="line"/>
      <point x="566" y="722" type="line"/>
      <point x="527" y="722" type="line"/>
      <point x="139" y="397" type="line"/>
      <point x="139" y="722" type="line"/>
      <point x="101" y="722" type="line"/>
    </contour>
  </outline>
</glyph>
<glyph name="L" format="1">
  <advance width="565"/>
  <unicode hex="004C"/>
  <outline>
    <contour>
      <point x="96" y="0" type="line"/>
      <point x="96" y="722" type="line"/>
      <point x="151" y="722" type="line"/>
      <point x="151" y="53" type="line"/>
      <point x="537" y="53" type="line"/>
      <point x="537" y="0" type="line"/>
    </contour>
  </outline>
</glyph>
<glyph name="M" format="1">
  <advance width="876"/>
  <unicode hex="004D"/>
  <outline>
    <contour>
      <point x="692" y="644" type="line"/>
      <point x="751" y="0" type="line"/>
      <point x="789" y="0" type="line"/>
      <point x="723" y="722" type="line"/>
      <point x="685" y="722" type="line"/>
      <point x="411" y="39" type="line"/>
      <point x="159" y="722" type="line"/>
      <point x="121" y="722" type="line"/>
      <point x="67" y="0" type="line"/>
      <point x="105" y="0" type="line"/>
      <point x="153" y="638" type="line"/>
      <point x="395" y="0" type="line"/>
      <point x="433" y="0" type="line"/>
    </contour>
  </outline>
</glyph>
<glyph name="N" format="1">
  <advance width="767"/>
  <unicode hex="004E"/>
  <outline>
    <contour>
      <point x="96" y="0" type="line"/>
      <point x="96" y="722" type="line"/>
      <point x="151" y="722" type="line"/>
      <point x="628" y="78" type="line"/>
      <point x="628" y="722" type="line"/>
      <point x="682" y="722" type="line"/>
      <point x="682" y="0" type="line"/>
      <point x="628" y="0" type="line"/>
      <point x="151" y="644" type="line"/>
      <point x="151" y="0" type="line"/>
    </contour>
  </outline>
</glyph>
<glyph name="O" format="1">
  <advance width="759"/>
  <unicode hex="004F"/>
  <outline>
    <contour>
      <point x="379" y="692" type="curve" smooth="yes"/>
      <point x="550" y="692"/>
      <point x="648" y="544"/>
      <point x="648" y="361" type="curve" smooth="yes"/>
      <point x="648" y="178"/>
      <point x="555" y="31"/>
      <point x="379" y="31" type="curve" smooth="yes"/>
      <point x="213" y="31"/>
      <point x="111" y="176"/>
      <point x="111" y="358" type="curve" smooth="yes"/>
      <point x="111" y="542"/>
      <point x="208" y="692"/>
    </contour>
    <contour>
      <point x="74" y="359" type="curve" smooth="yes"/>
      <point x="74" y="156"/>
      <point x="190" y="-6"/>
      <point x="380" y="-6" type="curve" smooth="yes"/>
      <point x="573" y="-6"/>
      <point x="685" y="158"/>
      <point x="685" y="361" type="curve" smooth="yes"/>
      <point x="685" y="563"/>
      <point x="574" y="728"/>
      <point x="380" y="728" type="curve" smooth="yes"/>
      <point x="190" y="728"/>
      <point x="74" y="565"/>
    </contour>
  </outline>
</glyph>
<glyph name="P" format="1">
  <advance width="556"/>
  <unicode hex="0050"/>
  <outline>
    <contour>
      <point x="279" y="268" type="curve" smooth="yes"/>
      <point x="231" y="268"/>
      <point x="191" y="278"/>
      <point x="151" y="297" type="curve"/>
      <point x="151" y="0" type="line"/>
      <point x="96" y="0" type="line"/>
      <point x="96" y="722" type="line"/>
      <point x="251" y="722" type="line" smooth="yes"/>
      <point x="393" y="722"/>
      <point x="509" y="641"/>
      <point x="509" y="485" type="curve" smooth="yes"/>
      <point x="509" y="359"/>
      <point x="413" y="268"/>
    </contour>
    <contour>
      <point x="454" y="487" type="curve" smooth="yes"/>
      <point x="454" y="608"/>
      <point x="363" y="670"/>
      <point x="251" y="670" type="curve" smooth="yes"/>
      <point x="151" y="670" type="line"/>
      <point x="151" y="353" type="line"/>
      <point x="187" y="333"/>
      <point x="227" y="322"/>
      <point x="268" y="322" type="curve" smooth="yes"/>
      <point x="380" y="322"/>
      <point x="454" y="392"/>
    </contour>
  </outline>
</glyph>
<glyph name="Q" format="1">
  <advance width="766"/>
  <unicode hex="0051"/>
  <outline>
    <contour>
      <point x="410" y="-5" type="curve"/>
      <point x="581" y="11"/>
      <point x="697" y="177"/>
      <point x="697" y="360" type="curve" smooth="yes"/>
      <point x="697" y="556"/>
      <point x="563" y="728"/>
      <point x="381" y="728" type="curve" smooth="yes"/>
      <point x="196" y="728"/>
      <point x="68" y="556"/>
      <point x="68" y="364" type="curve" smooth="yes"/>
      <point x="68" y="172"/>
      <point x="197" y="2"/>
      <point x="372" y="-6" type="curve"/>
      <point x="452" y="-130"/>
      <point x="600" y="-232"/>
      <point x="781" y="-240" type="curve"/>
      <point x="781" y="-204" type="line"/>
      <point x="618" y="-198"/>
      <point x="486" y="-111"/>
    </contour>
    <contour>
      <point x="380" y="691" type="curve" smooth="yes"/>
      <point x="543" y="691"/>
      <point x="659" y="534"/>
      <point x="659" y="357" type="curve" smooth="yes"/>
      <point x="660" y="190"/>
      <point x="556" y="30"/>
      <point x="387" y="30" type="curve" smooth="yes"/>
      <point x="224" y="30"/>
      <point x="105" y="188"/>
      <point x="105" y="367" type="curve" smooth="yes"/>
      <point x="106" y="536"/>
      <point x="213" y="691"/>
    </contour>
  </outline>
</glyph>
<glyph name="R" format="1">
  <advance width="679"/>
  <unicode hex="0052"/>
  <outline>
    <contour>
      <point x="288" y="722" type="line" smooth="yes"/>
      <point x="428" y="722"/>
      <point x="542" y="661"/>
      <point x="542" y="526" type="curve" smooth="yes"/>
      <point x="542" y="432"/>
      <point x="480" y="370"/>
      <point x="390" y="342" type="curve"/>
      <point x="679" y="0" type="line"/>
      <point x="617" y="0" type="line"/>
      <point x="336" y="330" type="line"/>
      <point x="312" y="326"/>
      <point x="288" y="324"/>
      <point x="262" y="324" type="curve" smooth="yes"/>
      <point x="169" y="324" type="line"/>
      <point x="169" y="0" type="line"/>
      <point x="115" y="0" type="line"/>
      <point x="115" y="722" type="line"/>
    </contour>
    <contour>
      <point x="169" y="376" type="line"/>
      <point x="262" y="376" type="line" smooth="yes"/>
      <point x="384" y="376"/>
      <point x="489" y="419"/>
      <point x="489" y="525" type="curve" smooth="yes"/>
      <point x="489" y="626"/>
      <point x="397" y="669"/>
      <point x="288" y="669" type="curve" smooth="yes"/>
      <point x="169" y="669" type="line"/>
    </contour>
  </outline>
</glyph>
<glyph name="S" format="1">
  <advance width="577"/>
  <unicode hex="0053"/>
  <outline>
    <contour>
      <point x="457" y="629" type="line"/>
      <point x="404" y="659"/>
      <point x="346" y="679"/>
      <point x="277" y="679" type="curve" smooth="yes"/>
      <point x="198" y="679"/>
      <point x="138" y="638"/>
      <point x="138" y="568" type="curve" smooth="yes"/>
      <point x="138" y="483"/>
      <point x="230" y="438"/>
      <point x="308" y="399" type="curve" smooth="yes"/>
      <point x="403" y="351"/>
      <point x="501" y="286"/>
      <point x="501" y="169" type="curve" smooth="yes"/>
      <point x="501" y="60"/>
      <point x="400" y="-6"/>
      <point x="272" y="-6" type="curve" smooth="yes"/>
      <point x="196" y="-6"/>
      <point x="126" y="11"/>
      <point x="60" y="39" type="curve"/>
      <point x="79" y="89" type="line"/>
      <point x="143" y="61"/>
      <point x="208" y="46"/>
      <point x="281" y="46" type="curve" smooth="yes"/>
      <point x="371" y="46"/>
      <point x="445" y="88"/>
      <point x="445" y="171" type="curve" smooth="yes"/>
      <point x="445" y="265"/>
      <point x="351" y="318"/>
      <point x="265" y="361" type="curve" smooth="yes"/>
      <point x="179" y="405"/>
      <point x="82" y="460"/>
      <point x="82" y="572" type="curve" smooth="yes"/>
      <point x="82" y="667"/>
      <point x="167" y="730"/>
      <point x="279" y="730" type="curve" smooth="yes"/>
      <point x="356" y="730"/>
      <point x="418" y="708"/>
      <point x="477" y="676" type="curve"/>
    </contour>
  </outline>
</glyph>
<glyph name="T" format="1">
  <advance width="619"/>
  <unicode hex="0054"/>
  <outline>
    <contour>
      <point x="-6" y="691" type="line"/>
      <point x="267" y="691" type="line"/>
      <point x="267" y="0" type="line"/>
      <point x="306" y="0" type="line"/>
      <point x="306" y="691" type="line"/>
      <point x="621" y="691" type="line"/>
      <point x="621" y="728" type="line"/>
      <point x="-6" y="728" type="line"/>
    </contour>
  </outline>
</glyph>
<glyph name="U" format="1">
  <advance width="703"/>
  <unicode hex="0055"/>
  <outline>
    <contour>
      <point x="92" y="722" type="line"/>
      <point x="92" y="287" type="line" smooth="yes"/>
      <point x="92" y="115"/>
      <point x="193" y="-6"/>
      <point x="359" y="-6" type="curve" smooth="yes"/>
      <point x="525" y="-6"/>
      <point x="626" y="112"/>
      <point x="626" y="282" type="curve" smooth="yes"/>
      <point x="626" y="722" type="line"/>
      <point x="588" y="722" type="line"/>
      <point x="588" y="573"/>
      <point x="589" y="424"/>
      <point x="589" y="275" type="curve" smooth="yes"/>
      <point x="589" y="132"/>
      <point x="505" y="31"/>
      <point x="367" y="31" type="curve" smooth="yes"/>
      <point x="218" y="31"/>
      <point x="130" y="140"/>
      <point x="130" y="294" type="curve" smooth="yes"/>
      <point x="130" y="722" type="line"/>
    </contour>
  </outline>
</glyph>
<glyph name="V" format="1">
  <advance width="737"/>
  <unicode hex="0056"/>
  <outline>
    <contour>
      <point x="707" y="722" type="line"/>
      <point x="419" y="0" type="line"/>
      <point x="363" y="0" type="line"/>
      <point x="74" y="722" type="line"/>
      <point x="130" y="722" type="line"/>
      <point x="393" y="75" type="line"/>
      <point x="652" y="722" type="line"/>
    </contour>
  </outline>
</glyph>
<glyph name="W" format="1">
  <advance width="967"/>
  <unicode hex="0057"/>
  <outline>
    <contour>
      <point x="905" y="722" type="line"/>
      <point x="706" y="0" type="line"/>
      <point x="657" y="0" type="line"/>
      <point x="501" y="636" type="line"/>
      <point x="348" y="0" type="line"/>
      <point x="299" y="0" type="line"/>
      <point x="63" y="722" type="line"/>
      <point x="117" y="722" type="line"/>
      <point x="318" y="78" type="line"/>
      <point x="477" y="722" type="line"/>
      <point x="522" y="722" type="line"/>
      <point x="680" y="83" type="line"/>
      <point x="854" y="722" type="line"/>
    </contour>
  </outline>
</glyph>
<glyph name="X" format="1">
  <advance width="689"/>
  <unicode hex="0058"/>
  <outline>
    <contour>
      <point x="92" y="722" type="line"/>
      <point x="326" y="367" type="line"/>
      <point x="50" y="0" type="line"/>
      <point x="89" y="0" type="line"/>
      <point x="345" y="338" type="line"/>
      <point x="568" y="0" type="line"/>
      <point x="607" y="0" type="line"/>
      <point x="363" y="370" type="line"/>
      <point x="635" y="722" type="line"/>
      <point x="596" y="722" type="line"/>
      <point x="343" y="401" type="line"/>
      <point x="131" y="722" type="line"/>
    </contour>
  </outline>
</glyph>
<glyph name="Y" format="1">
  <advance width="619"/>
  <unicode hex="0059"/>
  <outline>
    <contour>
      <point x="548" y="722" type="line"/>
      <point x="320" y="400" type="line"/>
      <point x="97" y="722" type="line"/>
      <point x="58" y="722" type="line"/>
      <point x="298" y="368" type="line"/>
      <point x="298" y="0" type="line"/>
      <point x="336" y="0" type="line"/>
      <point x="336" y="368" type="line"/>
      <point x="587" y="722" type="line"/>
    </contour>
  </outline>
</glyph>
<glyph name="Z" format="1">
  <advance width="667"/>
  <unicode hex="005A"/>
  <outline>
    <contour>
      <point x="102" y="653" type="line"/>
      <point x="102" y="706" type="line"/>
      <point x="606" y="706" type="line"/>
      <point x="606" y="654" type="line"/>
      <point x="94" y="62" type="line"/>
      <point x="631" y="62" type="line"/>
      <point x="631" y="9" type="line"/>
      <point x="36" y="9" type="line"/>
      <point x="36" y="62" type="line"/>
      <point x="549" y="654" type="line"/>
    </contour>
  </outline>
</glyph>
<glyph name="underscore" format="1">
  <advance width="710"/>
  <unicode hex="005F"/>
  <outline>
    <contour>
      <point x="20" y="-180" type="line"/>
      <point x="691" y="-180" type="line"/>
      <point x="691" y="-234" type="line"/>
      <point x="20" y="-234" type="line"/>
    </contour>
  </outline>
</glyph>
<glyph name="grave" format="1">
  <advance width="333"/>
  <unicode hex="0060"/>
  <outline>
    <contour>
      <point x="227" y="656" type="line"/>
      <point x="77" y="846" type="line"/>
      <point x="133" y="846" type="line"/>
      <point x="281" y="656" type="line"/>
    </contour>
  </outline>
</glyph>
<glyph name="a" format="1">
  <advance width="547"/>
  <unicode hex="0061"/>
  <outline>
    <contour>
      <point x="390" y="312" type="curve" smooth="yes"/>
      <point x="390" y="301" type="line"/>
      <point x="244" y="301"/>
      <point x="105" y="298"/>
      <point x="70" y="166" type="curve" smooth="yes"/>
      <point x="66" y="153"/>
      <point x="65" y="140"/>
      <point x="65" y="127" type="curve" smooth="yes"/>
      <point x="65" y="48"/>
      <point x="138" y="-18"/>
      <point x="233" y="-18" type="curve" smooth="yes"/>
      <point x="301" y="-18"/>
      <point x="357" y="21"/>
      <point x="390" y="87" type="curve"/>
      <point x="390" y="0" type="line"/>
      <point x="428" y="0" type="line"/>
      <point x="428" y="111" type="line" smooth="yes"/>
      <point x="427" y="181"/>
      <point x="427" y="252"/>
      <point x="427" y="323" type="curve" smooth="yes"/>
      <point x="427" y="436"/>
      <point x="358" y="508"/>
      <point x="233" y="508" type="curve" smooth="yes"/>
      <point x="177" y="508"/>
      <point x="123" y="489"/>
      <point x="77" y="456" type="curve"/>
      <point x="101" y="429" type="line"/>
      <point x="138" y="458"/>
      <point x="184" y="473"/>
      <point x="230" y="473" type="curve" smooth="yes"/>
      <point x="336" y="473"/>
      <point x="390" y="407"/>
    </contour>
    <contour>
      <point x="100" y="132" type="curve" smooth="yes"/>
      <point x="100" y="145"/>
      <point x="103" y="158"/>
      <point x="107" y="171" type="curve" smooth="yes"/>
      <point x="136" y="257"/>
      <point x="217" y="268"/>
      <point x="309" y="268" type="curve" smooth="yes"/>
      <point x="335" y="268"/>
      <point x="363" y="267"/>
      <point x="390" y="267" type="curve"/>
      <point x="390" y="191" type="line"/>
      <point x="372" y="87"/>
      <point x="316" y="15"/>
      <point x="234" y="15" type="curve" smooth="yes"/>
      <point x="155" y="15"/>
      <point x="100" y="69"/>
    </contour>
  </outline>
</glyph>
<glyph name="b" format="1">
  <advance width="628"/>
  <unicode hex="0062"/>
  <outline>
    <contour>
      <point x="555" y="273" type="curve" smooth="yes"/>
      <point x="555" y="407"/>
      <point x="468" y="503"/>
      <point x="328" y="503" type="curve" smooth="yes"/>
      <point x="251" y="503"/>
      <point x="178" y="470"/>
      <point x="129" y="413" type="curve"/>
      <point x="129" y="825" type="line"/>
      <point x="91" y="825" type="line"/>
      <point x="91" y="0" type="line"/>
      <point x="129" y="0" type="line"/>
      <point x="129" y="78" type="line"/>
      <point x="171" y="27"/>
      <point x="235" y="-4"/>
      <point x="303" y="-4" type="curve" smooth="yes"/>
      <point x="447" y="-4"/>
      <point x="555" y="122"/>
    </contour>
    <contour>
      <point x="329" y="474" type="curve" smooth="yes"/>
      <point x="443" y="474"/>
      <point x="519" y="387"/>
      <point x="519" y="270" type="curve" smooth="yes"/>
      <point x="519" y="141"/>
      <point x="436" y="25"/>
      <point x="306" y="25" type="curve" smooth="yes"/>
      <point x="228" y="25"/>
      <point x="158" y="72"/>
      <point x="129" y="144" type="curve"/>
      <point x="129" y="351" type="line"/>
      <point x="169" y="423"/>
      <point x="241" y="474"/>
    </contour>
  </outline>
</glyph>
<glyph name="c" format="1">
  <advance width="495"/>
  <unicode hex="0063"/>
  <outline>
    <contour>
      <point x="109" y="246" type="curve" smooth="yes"/>
      <point x="109" y="372"/>
      <point x="180" y="472"/>
      <point x="313" y="472" type="curve" smooth="yes"/>
      <point x="363" y="472"/>
      <point x="413" y="455"/>
      <point x="453" y="424" type="curve"/>
      <point x="477" y="451" type="line"/>
      <point x="430" y="485"/>
      <point x="375" y="503"/>
      <point x="317" y="503" type="curve" smooth="yes"/>
      <point x="165" y="503"/>
      <point x="71" y="394"/>
      <point x="71" y="247" type="curve" smooth="yes"/>
      <point x="71" y="101"/>
      <point x="156" y="-7"/>
      <point x="305" y="-7" type="curve" smooth="yes"/>
      <point x="373" y="-7"/>
      <point x="439" y="19"/>
      <point x="489" y="67" type="curve"/>
      <point x="466" y="95" type="line"/>
      <point x="424" y="52"/>
      <point x="368" y="29"/>
      <point x="309" y="29" type="curve" smooth="yes"/>
      <point x="183" y="29"/>
      <point x="109" y="123"/>
    </contour>
  </outline>
</glyph>
<glyph name="d" format="1">
  <advance width="625"/>
  <unicode hex="0064"/>
  <outline>
    <contour>
      <point x="318" y="503" type="curve" smooth="yes"/>
      <point x="171" y="503"/>
      <point x="74" y="392"/>
      <point x="74" y="237" type="curve" smooth="yes"/>
      <point x="74" y="97"/>
      <point x="158" y="-6"/>
      <point x="290" y="-6" type="curve" smooth="yes"/>
      <point x="375" y="-6"/>
      <point x="447" y="37"/>
      <point x="490" y="101" type="curve"/>
      <point x="490" y="0" type="line"/>
      <point x="528" y="0" type="line"/>
      <point x="528" y="102" type="line" smooth="yes"/>
      <point x="529" y="194"/>
      <point x="529" y="286"/>
      <point x="529" y="378" type="curve" smooth="yes"/>
      <point x="529" y="527"/>
      <point x="528" y="676"/>
      <point x="527" y="825" type="curve"/>
      <point x="489" y="825" type="line"/>
      <point x="490" y="699"/>
      <point x="491" y="572"/>
      <point x="491" y="446" type="curve"/>
      <point x="442" y="484"/>
      <point x="386" y="503"/>
    </contour>
    <contour>
      <point x="319" y="475" type="curve" smooth="yes"/>
      <point x="384" y="475"/>
      <point x="447" y="449"/>
      <point x="491" y="399" type="curve"/>
      <point x="491" y="327"/>
      <point x="490" y="254"/>
      <point x="490" y="182" type="curve"/>
      <point x="474" y="92"/>
      <point x="398" y="22"/>
      <point x="295" y="22" type="curve" smooth="yes"/>
      <point x="184" y="22"/>
      <point x="110" y="115"/>
      <point x="110" y="240" type="curve" smooth="yes"/>
      <point x="110" y="373"/>
      <point x="187" y="475"/>
    </contour>
  </outline>
</glyph>
<glyph name="e" format="1">
  <advance width="563"/>
  <unicode hex="0065"/>
  <outline>
    <contour>
      <point x="283" y="542" type="curve" smooth="yes"/>
      <point x="421" y="542"/>
      <point x="494" y="443"/>
      <point x="494" y="304" type="curve" smooth="yes"/>
      <point x="494" y="289"/>
      <point x="493" y="274"/>
      <point x="491" y="259" type="curve"/>
      <point x="116" y="259" type="line"/>
      <point x="126" y="135"/>
      <point x="196" y="45"/>
      <point x="315" y="44" type="curve" smooth="yes"/>
      <point x="367" y="44"/>
      <point x="418" y="63"/>
      <point x="457" y="99" type="curve"/>
      <point x="489" y="60" type="line"/>
      <point x="439" y="16"/>
      <point x="374" y="-8"/>
      <point x="308" y="-8" type="curve" smooth="yes"/>
      <point x="147" y="-8"/>
      <point x="61" y="114"/>
      <point x="61" y="276" type="curve" smooth="yes"/>
      <point x="61" y="427"/>
      <point x="149" y="542"/>
    </contour>
    <contour>
      <point x="440" y="304" type="line"/>
      <point x="438" y="411"/>
      <point x="384" y="489"/>
      <point x="284" y="489" type="curve" smooth="yes"/>
      <point x="183" y="489"/>
      <point x="123" y="410"/>
      <point x="116" y="304" type="curve"/>
    </contour>
  </outline>
</glyph>
<glyph name="f" format="1">
  <advance width="464"/>
  <unicode hex="0066"/>
  <outline>
    <contour>
      <point x="235" y="478" type="line"/>
      <point x="235" y="664" type="line" smooth="yes"/>
      <point x="235" y="745"/>
      <point x="302" y="802"/>
      <point x="374" y="802" type="curve" smooth="yes"/>
      <point x="401" y="802"/>
      <point x="429" y="794"/>
      <point x="454" y="776" type="curve"/>
      <point x="468" y="809" type="line"/>
      <point x="437" y="829"/>
      <point x="404" y="838"/>
      <point x="372" y="838" type="curve" smooth="yes"/>
      <point x="281" y="838"/>
      <point x="196" y="766"/>
      <point x="196" y="664" type="curve" smooth="yes"/>
      <point x="196" y="478" type="line"/>
      <point x="29" y="478" type="line"/>
      <point x="29" y="443" type="line"/>
      <point x="196" y="443" type="line"/>
      <point x="196" y="0" type="line"/>
      <point x="235" y="0" type="line"/>
      <point x="235" y="443" type="line"/>
      <point x="452" y="443" type="line"/>
      <point x="452" y="478" type="line"/>
    </contour>
  </outline>
</glyph>
<glyph name="g" format="1">
  <advance width="585"/>
  <unicode hex="0067"/>
  <outline>
    <contour>
      <point x="485" y="-110" type="curve" smooth="yes"/>
      <point x="485" y="-201"/>
      <point x="370" y="-255"/>
      <point x="252" y="-255" type="curve" smooth="yes"/>
      <point x="151" y="-255"/>
      <point x="76" y="-212"/>
      <point x="76" y="-121" type="curve" smooth="yes"/>
      <point x="76" y="-62"/>
      <point x="111" y="-14"/>
      <point x="158" y="9" type="curve"/>
      <point x="174" y="6"/>
      <point x="191" y="6"/>
      <point x="209" y="6" type="curve" smooth="yes"/>
      <point x="245" y="6"/>
      <point x="285" y="9"/>
      <point x="326" y="9" type="curve" smooth="yes"/>
      <point x="402" y="9"/>
      <point x="485" y="-27"/>
    </contour>
    <contour>
      <point x="520" y="-104" type="curve" smooth="yes"/>
      <point x="520" y="-4"/>
      <point x="428" y="42"/>
      <point x="340" y="42" type="curve" smooth="yes"/>
      <point x="289" y="42"/>
      <point x="239" y="34"/>
      <point x="199" y="34" type="curve" smooth="yes"/>
      <point x="191" y="34"/>
      <point x="181" y="34"/>
      <point x="175" y="36" type="curve"/>
      <point x="173" y="36" type="line"/>
      <point x="133" y="41"/>
      <point x="109" y="59"/>
      <point x="109" y="111" type="curve" smooth="yes"/>
      <point x="109" y="144"/>
      <point x="128" y="172"/>
      <point x="156" y="186" type="curve"/>
      <point x="187" y="165"/>
      <point x="226" y="153"/>
      <point x="266" y="153" type="curve" smooth="yes"/>
      <point x="371" y="153"/>
      <point x="460" y="232"/>
      <point x="460" y="332" type="curve" smooth="yes"/>
      <point x="460" y="372"/>
      <point x="448" y="402"/>
      <point x="428" y="429" type="curve"/>
      <point x="573" y="426" type="line"/>
      <point x="573" y="460" type="line"/>
      <point x="402" y="456" type="line"/>
      <point x="368" y="486"/>
      <point x="324" y="503"/>
      <point x="272" y="503" type="curve" smooth="yes"/>
      <point x="168" y="503"/>
      <point x="79" y="425"/>
      <point x="79" y="326" type="curve" smooth="yes"/>
      <point x="79" y="274"/>
      <point x="101" y="234"/>
      <point x="134" y="204" type="curve"/>
      <point x="98" y="185"/>
      <point x="74" y="148"/>
      <point x="74" y="106" type="curve" smooth="yes"/>
      <point x="74" y="57"/>
      <point x="98" y="29"/>
      <point x="128" y="17" type="curve"/>
      <point x="76" y="-14"/>
      <point x="43" y="-70"/>
      <point x="44" y="-133" type="curve" smooth="yes"/>
      <point x="44" y="-239"/>
      <point x="128" y="-289"/>
      <point x="242" y="-289" type="curve" smooth="yes"/>
      <point x="387" y="-289"/>
      <point x="520" y="-213"/>
    </contour>
    <contour>
      <point x="117" y="330" type="curve" smooth="yes"/>
      <point x="117" y="410"/>
      <point x="187" y="470"/>
      <point x="272" y="470" type="curve" smooth="yes"/>
      <point x="354" y="470"/>
      <point x="424" y="410"/>
      <point x="425" y="331" type="curve" smooth="yes"/>
      <point x="425" y="251"/>
      <point x="354" y="189"/>
      <point x="270" y="189" type="curve" smooth="yes"/>
      <point x="188" y="189"/>
      <point x="117" y="247"/>
    </contour>
  </outline>
</glyph>
<glyph name="h" format="1">
  <advance width="580"/>
  <unicode hex="0068"/>
  <outline>
    <contour>
      <point x="441" y="337" type="curve" smooth="yes"/>
      <point x="441" y="420"/>
      <point x="385" y="494"/>
      <point x="291" y="494" type="curve" smooth="yes"/>
      <point x="232" y="494"/>
      <point x="172" y="460"/>
      <point x="141" y="410" type="curve"/>
      <point x="141" y="0" type="line"/>
      <point x="87" y="0" type="line"/>
      <point x="87" y="242"/>
      <point x="87" y="485"/>
      <point x="86" y="727" type="curve"/>
      <point x="86" y="783" type="line"/>
      <point x="141" y="783" type="line"/>
      <point x="141" y="473" type="line"/>
      <point x="183" y="519"/>
      <point x="244" y="547"/>
      <point x="306" y="547" type="curve" smooth="yes"/>
      <point x="429" y="547"/>
      <point x="495" y="448"/>
      <point x="495" y="341" type="curve" smooth="yes"/>
      <point x="495" y="227"/>
      <point x="495" y="114"/>
      <point x="496" y="0" type="curve"/>
      <point x="442" y="0" type="line"/>
      <point x="441" y="112"/>
      <point x="441" y="224"/>
    </contour>
  </outline>
</glyph>
<glyph name="i" format="1">
  <advance width="245"/>
  <unicode hex="0069"/>
  <outline>
    <contour>
      <point x="101" y="640" type="line"/>
      <point x="140" y="640" type="line"/>
      <point x="140" y="742" type="line"/>
      <point x="101" y="742" type="line"/>
    </contour>
    <contour>
      <point x="102" y="0" type="line"/>
      <point x="140" y="0" type="line"/>
      <point x="139" y="498" type="line"/>
      <point x="101" y="498" type="line"/>
    </contour>
  </outline>
</glyph>
<glyph name="j" format="1">
  <advance width="356"/>
  <unicode hex="006A"/>
  <outline>
    <contour>
      <point x="170" y="683" type="line"/>
      <point x="170" y="803" type="line"/>
      <point x="226" y="803" type="line"/>
      <point x="226" y="683" type="line"/>
    </contour>
    <contour>
      <point x="28" y="-245" type="line"/>
      <point x="36" y="-247"/>
      <point x="44" y="-247"/>
      <point x="52" y="-247" type="curve" smooth="yes"/>
      <point x="116" y="-247"/>
      <point x="171" y="-195"/>
      <point x="171" y="-127" type="curve" smooth="yes"/>
      <point x="171" y="535" type="line"/>
      <point x="225" y="535" type="line"/>
      <point x="225" y="-127" type="line" smooth="yes"/>
      <point x="225" y="-224"/>
      <point x="147" y="-300"/>
      <point x="53" y="-300" type="curve" smooth="yes"/>
      <point x="45" y="-300"/>
      <point x="36" y="-299"/>
      <point x="28" y="-298" type="curve"/>
    </contour>
  </outline>
</glyph>
<glyph name="k" format="1">
  <advance width="605"/>
  <unicode hex="006B"/>
  <outline>
    <contour>
      <point x="121" y="0" type="line"/>
      <point x="159" y="0" type="line"/>
      <point x="159" y="251" type="line"/>
      <point x="501" y="0" type="line"/>
      <point x="549" y="0" type="line"/>
      <point x="193" y="266" type="line"/>
      <point x="524" y="498" type="line"/>
      <point x="475" y="498" type="line"/>
      <point x="159" y="278" type="line"/>
      <point x="159" y="789" type="line"/>
      <point x="121" y="789" type="line"/>
    </contour>
  </outline>
</glyph>
<glyph name="l" format="1">
  <advance width="274"/>
  <unicode hex="006C"/>
  <outline>
    <contour>
      <point x="110" y="1" type="line"/>
      <point x="109" y="783" type="line"/>
      <point x="164" y="783" type="line"/>
      <point x="164" y="1" type="line"/>
    </contour>
  </outline>
</glyph>
<glyph name="m" format="1">
  <advance width="937"/>
  <unicode hex="006D"/>
  <outline>
    <contour>
      <point x="444" y="360" type="curve" smooth="yes"/>
      <point x="444" y="440"/>
      <point x="395" y="494"/>
      <point x="308" y="494" type="curve" smooth="yes"/>
      <point x="243" y="494"/>
      <point x="183" y="459"/>
      <point x="150" y="403" type="curve"/>
      <point x="150" y="258"/>
      <point x="150" y="149"/>
      <point x="149" y="0" type="curve"/>
      <point x="95" y="0" type="line"/>
      <point x="96" y="159"/>
      <point x="96" y="271"/>
      <point x="96" y="431" type="curve" smooth="yes"/>
      <point x="96" y="533" type="line"/>
      <point x="150" y="533" type="line"/>
      <point x="150" y="463" type="line"/>
      <point x="190" y="515"/>
      <point x="253" y="547"/>
      <point x="320" y="547" type="curve" smooth="yes"/>
      <point x="406" y="547"/>
      <point x="463" y="502"/>
      <point x="485" y="442" type="curve"/>
      <point x="522" y="506"/>
      <point x="591" y="546"/>
      <point x="665" y="546" type="curve" smooth="yes"/>
      <point x="790" y="546"/>
      <point x="844" y="460"/>
      <point x="844" y="350" type="curve" smooth="yes"/>
      <point x="844" y="234"/>
      <point x="844" y="118"/>
      <point x="845" y="1" type="curve"/>
      <point x="790" y="1" type="line"/>
      <point x="790" y="348" type="line" smooth="yes"/>
      <point x="790" y="431"/>
      <point x="743" y="491"/>
      <point x="653" y="491" type="curve" smooth="yes"/>
      <point x="587" y="491"/>
      <point x="526" y="455"/>
      <point x="496" y="396" type="curve"/>
      <point x="497" y="384"/>
      <point x="498" y="372"/>
      <point x="498" y="359" type="curve" smooth="yes"/>
      <point x="498" y="240"/>
      <point x="498" y="120"/>
      <point x="497" y="1" type="curve"/>
      <point x="443" y="1" type="line"/>
      <point x="444" y="121"/>
      <point x="444" y="241"/>
    </contour>
  </outline>
</glyph>
<glyph name="n" format="1">
  <advance width="589"/>
  <unicode hex="006E"/>
  <outline>
    <contour>
      <point x="330" y="505" type="curve" smooth="yes"/>
      <point x="253" y="505"/>
      <point x="183" y="467"/>
      <point x="131" y="408" type="curve"/>
      <point x="131" y="498" type="line"/>
      <point x="93" y="498" type="line"/>
      <point x="93" y="402" type="line" smooth="yes"/>
      <point x="93" y="268"/>
      <point x="92" y="134"/>
      <point x="91" y="0" type="curve"/>
      <point x="129" y="0" type="line"/>
      <point x="130" y="116"/>
      <point x="131" y="232"/>
      <point x="131" y="348" type="curve"/>
      <point x="176" y="418"/>
      <point x="247" y="469"/>
      <point x="331" y="469" type="curve" smooth="yes"/>
      <point x="410" y="469"/>
      <point x="460" y="421"/>
      <point x="460" y="343" type="curve" smooth="yes"/>
      <point x="460" y="0" type="line"/>
      <point x="498" y="0" type="line"/>
      <point x="498" y="346" type="line" smooth="yes"/>
      <point x="498" y="444"/>
      <point x="437" y="505"/>
    </contour>
  </outline>
</glyph>
<glyph name="o" format="1">
  <advance width="640"/>
  <unicode hex="006F"/>
  <outline>
    <contour>
      <point x="114" y="253" type="curve" smooth="yes"/>
      <point x="114" y="380"/>
      <point x="186" y="470"/>
      <point x="316" y="470" type="curve" smooth="yes"/>
      <point x="441" y="470"/>
      <point x="517" y="381"/>
      <point x="517" y="249" type="curve" smooth="yes"/>
      <point x="517" y="117"/>
      <point x="443" y="27"/>
      <point x="315" y="27" type="curve" smooth="yes"/>
      <point x="189" y="27"/>
      <point x="114" y="118"/>
    </contour>
    <contour>
      <point x="316" y="-6" type="curve" smooth="yes"/>
      <point x="461" y="-6"/>
      <point x="553" y="97"/>
      <point x="553" y="250" type="curve" smooth="yes"/>
      <point x="554" y="402"/>
      <point x="466" y="503"/>
      <point x="314" y="503" type="curve" smooth="yes"/>
      <point x="167" y="503"/>
      <point x="77" y="400"/>
      <point x="77" y="252" type="curve" smooth="yes"/>
      <point x="77" y="98"/>
      <point x="162" y="-6"/>
    </contour>
  </outline>
</glyph>
<glyph name="p" format="1">
  <advance width="635"/>
  <unicode hex="0070"/>
  <outline>
    <contour>
      <point x="559" y="273" type="curve" smooth="yes"/>
      <point x="559" y="400"/>
      <point x="471" y="504"/>
      <point x="334" y="504" type="curve" smooth="yes"/>
      <point x="253" y="504"/>
      <point x="178" y="461"/>
      <point x="133" y="395" type="curve"/>
      <point x="133" y="429"/>
      <point x="132" y="464"/>
      <point x="132" y="498" type="curve"/>
      <point x="93" y="498" type="line"/>
      <point x="96" y="375"/>
      <point x="96" y="250"/>
      <point x="96" y="125" type="curve" smooth="yes"/>
      <point x="96" y="-12"/>
      <point x="95" y="-149"/>
      <point x="93" y="-287" type="curve"/>
      <point x="132" y="-287" type="line"/>
      <point x="133" y="-176"/>
      <point x="134" y="-65"/>
      <point x="134" y="46" type="curve"/>
      <point x="178" y="12"/>
      <point x="231" y="-6"/>
      <point x="287" y="-6" type="curve" smooth="yes"/>
      <point x="438" y="-6"/>
      <point x="559" y="117"/>
    </contour>
    <contour>
      <point x="335" y="477" type="curve" smooth="yes"/>
      <point x="445" y="477"/>
      <point x="523" y="386"/>
      <point x="523" y="274" type="curve" smooth="yes"/>
      <point x="523" y="138"/>
      <point x="423" y="27"/>
      <point x="290" y="27" type="curve" smooth="yes"/>
      <point x="231" y="27"/>
      <point x="174" y="51"/>
      <point x="134" y="94" type="curve"/>
      <point x="134" y="115" type="line" smooth="yes"/>
      <point x="134" y="182"/>
      <point x="133" y="249"/>
      <point x="133" y="316" type="curve"/>
      <point x="163" y="406"/>
      <point x="238" y="477"/>
    </contour>
  </outline>
</glyph>
<glyph name="q" format="1">
  <advance width="665"/>
  <unicode hex="0071"/>
  <outline>
    <contour>
      <point x="334" y="502" type="curve" smooth="yes"/>
      <point x="191" y="502"/>
      <point x="75" y="389"/>
      <point x="75" y="250" type="curve" smooth="yes"/>
      <point x="75" y="99"/>
      <point x="203" y="-10"/>
      <point x="363" y="-10" type="curve" smooth="yes"/>
      <point x="412" y="-10"/>
      <point x="462" y="1"/>
      <point x="506" y="23" type="curve"/>
      <point x="506" y="-287" type="line"/>
      <point x="544" y="-287" type="line"/>
      <point x="544" y="498" type="line"/>
      <point x="506" y="498" type="line"/>
      <point x="506" y="433" type="line"/>
      <point x="461" y="476"/>
      <point x="405" y="502"/>
    </contour>
    <contour>
      <point x="112" y="252" type="curve" smooth="yes"/>
      <point x="112" y="372"/>
      <point x="210" y="470"/>
      <point x="332" y="472" type="curve" smooth="yes"/>
      <point x="401" y="472"/>
      <point x="465" y="441"/>
      <point x="506" y="386" type="curve"/>
      <point x="506" y="62" type="line"/>
      <point x="463" y="36"/>
      <point x="415" y="21"/>
      <point x="365" y="21" type="curve" smooth="yes"/>
      <point x="227" y="21"/>
      <point x="112" y="119"/>
    </contour>
  </outline>
</glyph>
<glyph name="r" format="1">
  <advance width="401"/>
  <unicode hex="0072"/>
  <outline>
    <contour>
      <point x="360" y="489" type="curve" smooth="yes"/>
      <point x="258" y="489"/>
      <point x="187" y="442"/>
      <point x="140" y="379" type="curve"/>
      <point x="140" y="0" type="line"/>
      <point x="86" y="0" type="line"/>
      <point x="86" y="533" type="line"/>
      <point x="140" y="533" type="line"/>
      <point x="140" y="447" type="line"/>
      <point x="190" y="499"/>
      <point x="262" y="541"/>
      <point x="357" y="541" type="curve" smooth="yes"/>
      <point x="368" y="541"/>
      <point x="378" y="540"/>
      <point x="389" y="539" type="curve"/>
      <point x="383" y="488" type="line"/>
      <point x="375" y="489"/>
      <point x="368" y="489"/>
    </contour>
  </outline>
</glyph>
<glyph name="s" format="1">
  <advance width="479"/>
  <unicode hex="0073"/>
  <outline>
    <contour>
      <point x="248" y="492" type="curve" smooth="yes"/>
      <point x="179" y="492"/>
      <point x="125" y="458"/>
      <point x="125" y="401" type="curve" smooth="yes"/>
      <point x="125" y="323"/>
      <point x="199" y="306"/>
      <point x="266" y="285" type="curve" smooth="yes"/>
      <point x="348" y="260"/>
      <point x="421" y="225"/>
      <point x="421" y="136" type="curve" smooth="yes"/>
      <point x="421" y="41"/>
      <point x="322" y="-6"/>
      <point x="209" y="-6" type="curve" smooth="yes"/>
      <point x="139" y="-6"/>
      <point x="80" y="12"/>
      <point x="21" y="52" type="curve"/>
      <point x="48" y="95" type="line"/>
      <point x="101" y="60"/>
      <point x="155" y="44"/>
      <point x="218" y="44" type="curve" smooth="yes"/>
      <point x="294" y="44"/>
      <point x="367" y="66"/>
      <point x="367" y="136" type="curve" smooth="yes"/>
      <point x="367" y="200"/>
      <point x="300" y="223"/>
      <point x="231" y="244" type="curve" smooth="yes"/>
      <point x="150" y="269"/>
      <point x="72" y="305"/>
      <point x="72" y="402" type="curve" smooth="yes"/>
      <point x="72" y="484"/>
      <point x="148" y="539"/>
      <point x="246" y="539" type="curve" smooth="yes"/>
      <point x="310" y="539"/>
      <point x="360" y="523"/>
      <point x="409" y="491" type="curve"/>
      <point x="386" y="447" type="line"/>
      <point x="343" y="478"/>
      <point x="299" y="492"/>
    </contour>
  </outline>
</glyph>
<glyph name="t" format="1">
  <advance width="435"/>
  <unicode hex="0074"/>
  <outline>
    <contour>
      <point x="26" y="457" type="line"/>
      <point x="26" y="509" type="line"/>
      <point x="160" y="509" type="line"/>
      <point x="160" y="632" type="line"/>
      <point x="214" y="664" type="line"/>
      <point x="214" y="509" type="line"/>
      <point x="421" y="510" type="line"/>
      <point x="421" y="458" type="line"/>
      <point x="214" y="457" type="line"/>
      <point x="214" y="175" type="line" smooth="yes"/>
      <point x="214" y="102"/>
      <point x="240" y="40"/>
      <point x="305" y="40" type="curve" smooth="yes"/>
      <point x="336" y="40"/>
      <point x="367" y="49"/>
      <point x="394" y="65" type="curve"/>
      <point x="411" y="22" type="line"/>
      <point x="371" y="4"/>
      <point x="329" y="-6"/>
      <point x="285" y="-6" type="curve" smooth="yes"/>
      <point x="206" y="-6"/>
      <point x="160" y="59"/>
      <point x="160" y="143" type="curve" smooth="yes"/>
      <point x="160" y="457" type="line"/>
    </contour>
  </outline>
</glyph>
<glyph name="u" format="1">
  <advance width="592"/>
  <unicode hex="0075"/>
  <outline>
    <contour>
      <point x="146" y="188" type="line" smooth="yes"/>
      <point x="146" y="100"/>
      <point x="196" y="33"/>
      <point x="293" y="33" type="curve" smooth="yes"/>
      <point x="365" y="33"/>
      <point x="428" y="79"/>
      <point x="451" y="145" type="curve"/>
      <point x="451" y="533" type="line"/>
      <point x="505" y="533" type="line"/>
      <point x="505" y="0" type="line"/>
      <point x="451" y="0" type="line"/>
      <point x="451" y="76" type="line"/>
      <point x="410" y="23"/>
      <point x="346" y="-11"/>
      <point x="276" y="-11" type="curve" smooth="yes"/>
      <point x="159" y="-11"/>
      <point x="92" y="67"/>
      <point x="92" y="170" type="curve" smooth="yes"/>
      <point x="92" y="533" type="line"/>
      <point x="146" y="533" type="line"/>
    </contour>
  </outline>
</glyph>
<glyph name="v" format="1">
  <advance width="560"/>
  <unicode hex="0076"/>
  <outline>
    <contour>
      <point x="45" y="498" type="line"/>
      <point x="249" y="0" type="line"/>
      <point x="286" y="0" type="line"/>
      <point x="506" y="498" type="line"/>
      <point x="468" y="498" type="line"/>
      <point x="265" y="37" type="line"/>
      <point x="83" y="498" type="line"/>
    </contour>
  </outline>
</glyph>
<glyph name="w" format="1">
  <advance width="930"/>
  <unicode hex="0077"/>
  <outline>
    <contour>
      <point x="60" y="533" type="line"/>
      <point x="115" y="533" type="line"/>
      <point x="279" y="57" type="line"/>
      <point x="436" y="533" type="line"/>
      <point x="488" y="533" type="line"/>
      <point x="628" y="57" type="line"/>
      <point x="828" y="533" type="line"/>
      <point x="885" y="533" type="line"/>
      <point x="656" y="0" type="line"/>
      <point x="604" y="0" type="line"/>
      <point x="461" y="452" type="line"/>
      <point x="312" y="0" type="line"/>
      <point x="260" y="0" type="line"/>
    </contour>
  </outline>
</glyph>
<glyph name="x" format="1">
  <advance width="569"/>
  <unicode hex="0078"/>
  <outline>
    <contour>
      <point x="90" y="533" type="line"/>
      <point x="153" y="533" type="line"/>
      <point x="290" y="326" type="line"/>
      <point x="450" y="533" type="line"/>
      <point x="507" y="533" type="line"/>
      <point x="321" y="280" type="line"/>
      <point x="506" y="0" type="line"/>
      <point x="443" y="0" type="line"/>
      <point x="290" y="231" type="line"/>
      <point x="110" y="0" type="line"/>
      <point x="52" y="0" type="line"/>
      <point x="260" y="277" type="line"/>
    </contour>
  </outline>
</glyph>
<glyph name="y" format="1">
  <advance width="573"/>
  <unicode hex="0079"/>
  <outline>
    <contour>
      <point x="49" y="533" type="line"/>
      <point x="107" y="533" type="line"/>
      <point x="278" y="134" type="line"/>
      <point x="470" y="533" type="line"/>
      <point x="524" y="533" type="line"/>
      <point x="126" y="-300" type="line"/>
      <point x="68" y="-300" type="line"/>
      <point x="252" y="81" type="line"/>
    </contour>
  </outline>
</glyph>
<glyph name="z" format="1">
  <advance width="484"/>
  <unicode hex="007A"/>
  <outline>
    <contour>
      <point x="63" y="465" type="line"/>
      <point x="63" y="516" type="line"/>
      <point x="460" y="517" type="line"/>
      <point x="460" y="465" type="line"/>
      <point x="78" y="52" type="line"/>
      <point x="470" y="52" type="line"/>
      <point x="470" y="0" type="line"/>
      <point x="17" y="0" type="line"/>
      <point x="17" y="52" type="line"/>
      <point x="398" y="465" type="line"/>
    </contour>
  </outline>
</glyph>
<glyph name="bar" format="1">
  <advance width="63"/>
  <unicode hex="007C"/>
  <outline>
    <contour>
      <point x="12" y="-428" type="line"/>
      <point x="50" y="-428" type="line"/>
      <point x="50" y="-355" type="line"/>
      <point x="12" y="-355" type="line"/>
    </contour>
    <contour>
      <point x="12" y="864" type="line"/>
      <point x="50" y="864" type="line"/>
      <point x="50" y="938" type="line"/>
      <point x="12" y="938" type="line"/>
    </contour>
    <contour>
      <point x="12" y="790" type="line"/>
      <point x="12" y="786" type="line"/>
      <point x="50" y="786" type="line"/>
      <point x="50" y="790" type="line"/>
    </contour>
    <contour>
      <point x="12" y="499" type="line"/>
      <point x="50" y="499" type="line"/>
      <point x="50" y="744" type="line"/>
      <point x="12" y="744" type="line"/>
    </contour>
    <contour>
      <point x="12" y="1" type="line"/>
      <point x="50" y="1" type="line"/>
      <point x="50" y="497" type="line"/>
      <point x="12" y="497" type="line"/>
    </contour>
    <contour>
      <point x="12" y="-287" type="line"/>
      <point x="50" y="-287" type="line"/>
      <point x="50" y="-1" type="line"/>
      <point x="12" y="-1" type="line"/>
    </contour>
  </outline>
</glyph>
